# Blender v2.79 (sub 0) OBJ File: ''
# www.blender.org
o Cube3
v -1.696949 2.958253 -0.089290
v -0.552167 2.827552 -1.069588
v -1.298202 3.568360 -0.872276
v -1.206942 2.355038 -1.771227
v -2.351724 2.485739 -0.790929
v -1.952976 3.095846 -1.573915
v -0.950915 2.217445 -0.286602
v -1.605689 1.744931 -0.988241
vt 0.000100 0.999900
vt 0.999900 0.000100
vt 0.999900 0.999900
vt 0.000100 0.999900
vt 0.999899 0.000100
vt 0.999900 0.999899
vt 0.000100 0.000100
vt 0.999900 0.000100
vt 0.999900 0.999900
vt 0.000100 0.000100
vt 0.999900 0.000100
vt 0.000100 0.999900
vt 0.999900 0.000100
vt 0.999900 0.999900
vt 0.000100 0.000100
vt 0.999900 0.000100
vt 0.000100 0.000100
vt 0.000100 0.999900
vt 0.000100 0.999900
vt 0.000100 0.999900
vn 0.6121 0.4417 0.6559
vn -0.6121 -0.4417 -0.6559
vn -0.6974 0.6925 0.1845
vn -0.3728 -0.5703 0.7320
vn 0.6974 -0.6925 -0.1845
vn 0.3728 0.5703 -0.7320
s 1
f 1/1/1 2/2/1 3/3/1
f 4/4/2 5/5/2 6/6/2
f 6/6/3 1/7/3 3/8/3
f 5/9/4 7/10/4 1/11/4
f 7/12/5 4/13/5 2/14/5
f 3/3/6 4/15/6 6/16/6
f 1/1/1 7/10/1 2/2/1
f 4/4/2 8/17/2 5/5/2
f 6/6/3 5/18/3 1/7/3
f 5/9/4 8/19/4 7/10/4
f 7/12/5 8/17/5 4/13/5
f 3/3/6 2/20/6 4/15/6
